<mxfile host="app.diagrams.net" modified="2020-07-29T19:04:16.870Z" agent="5.0 (Macintosh; Intel Mac OS X 10_15_5) AppleWebKit/537.36 (KHTML, like Gecko) Chrome/84.0.4147.89 Safari/537.36" etag="YdS1HMX7J5MxlC4P4Pnx" version="13.5.5" type="github">
  <diagram id="I5xiXT-NWrpk5hTiv7nG" name="Page-1">
    <mxGraphModel dx="746" dy="971" grid="1" gridSize="10" guides="1" tooltips="1" connect="1" arrows="1" fold="1" page="1" pageScale="1" pageWidth="827" pageHeight="1169" math="0" shadow="0">
      <root>
        <mxCell id="0" />
        <mxCell id="1" parent="0" />
        <mxCell id="MB2JMGQzW6ZQnfTpVfwz-1" value="CPU" style="rounded=0;whiteSpace=wrap;html=1;fillColor=#dae8fc;strokeColor=#6c8ebf;" vertex="1" parent="1">
          <mxGeometry x="380" y="490" width="50" height="50" as="geometry" />
        </mxCell>
        <mxCell id="MB2JMGQzW6ZQnfTpVfwz-2" value="CPU" style="rounded=0;whiteSpace=wrap;html=1;fillColor=#dae8fc;strokeColor=#6c8ebf;" vertex="1" parent="1">
          <mxGeometry x="450" y="490" width="50" height="50" as="geometry" />
        </mxCell>
        <mxCell id="MB2JMGQzW6ZQnfTpVfwz-3" value="CPU" style="rounded=0;whiteSpace=wrap;html=1;fillColor=#dae8fc;strokeColor=#6c8ebf;" vertex="1" parent="1">
          <mxGeometry x="584" y="490" width="50" height="50" as="geometry" />
        </mxCell>
        <mxCell id="MB2JMGQzW6ZQnfTpVfwz-4" value="CPU" style="rounded=0;whiteSpace=wrap;html=1;fillColor=#dae8fc;strokeColor=#6c8ebf;" vertex="1" parent="1">
          <mxGeometry x="515" y="490" width="50" height="50" as="geometry" />
        </mxCell>
        <mxCell id="MB2JMGQzW6ZQnfTpVfwz-5" value="" style="rounded=0;whiteSpace=wrap;html=1;fillColor=#bac8d3;strokeColor=#23445d;" vertex="1" parent="1">
          <mxGeometry x="380" y="250" width="50" height="200" as="geometry" />
        </mxCell>
        <mxCell id="MB2JMGQzW6ZQnfTpVfwz-6" value="" style="rounded=0;whiteSpace=wrap;html=1;fillColor=#ffff88;strokeColor=#36393d;" vertex="1" parent="1">
          <mxGeometry x="390" y="410" width="30" height="30" as="geometry" />
        </mxCell>
        <mxCell id="MB2JMGQzW6ZQnfTpVfwz-7" value="" style="rounded=0;whiteSpace=wrap;html=1;fillColor=#ffff88;strokeColor=#36393d;" vertex="1" parent="1">
          <mxGeometry x="390" y="370" width="30" height="30" as="geometry" />
        </mxCell>
        <mxCell id="MB2JMGQzW6ZQnfTpVfwz-8" value="" style="rounded=0;whiteSpace=wrap;html=1;fillColor=#ffff88;strokeColor=#36393d;" vertex="1" parent="1">
          <mxGeometry x="390" y="330" width="30" height="30" as="geometry" />
        </mxCell>
        <mxCell id="MB2JMGQzW6ZQnfTpVfwz-9" value="" style="rounded=0;whiteSpace=wrap;html=1;fillColor=#ffff88;strokeColor=#36393d;" vertex="1" parent="1">
          <mxGeometry x="390" y="290" width="30" height="30" as="geometry" />
        </mxCell>
        <mxCell id="MB2JMGQzW6ZQnfTpVfwz-10" value="" style="rounded=0;whiteSpace=wrap;html=1;fillColor=#bac8d3;strokeColor=#23445d;" vertex="1" parent="1">
          <mxGeometry x="450" y="250" width="50" height="200" as="geometry" />
        </mxCell>
        <mxCell id="MB2JMGQzW6ZQnfTpVfwz-11" value="" style="rounded=0;whiteSpace=wrap;html=1;fillColor=#ffff88;strokeColor=#36393d;" vertex="1" parent="1">
          <mxGeometry x="460" y="410" width="30" height="30" as="geometry" />
        </mxCell>
        <mxCell id="MB2JMGQzW6ZQnfTpVfwz-12" value="" style="rounded=0;whiteSpace=wrap;html=1;fillColor=#ffff88;strokeColor=#36393d;" vertex="1" parent="1">
          <mxGeometry x="460" y="370" width="30" height="30" as="geometry" />
        </mxCell>
        <mxCell id="MB2JMGQzW6ZQnfTpVfwz-13" value="" style="rounded=0;whiteSpace=wrap;html=1;fillColor=#bac8d3;strokeColor=#23445d;" vertex="1" parent="1">
          <mxGeometry x="515" y="250" width="50" height="200" as="geometry" />
        </mxCell>
        <mxCell id="MB2JMGQzW6ZQnfTpVfwz-14" value="" style="rounded=0;whiteSpace=wrap;html=1;fillColor=#ffff88;strokeColor=#36393d;" vertex="1" parent="1">
          <mxGeometry x="525" y="410" width="30" height="30" as="geometry" />
        </mxCell>
        <mxCell id="MB2JMGQzW6ZQnfTpVfwz-15" value="" style="rounded=0;whiteSpace=wrap;html=1;fillColor=#ffff88;strokeColor=#36393d;" vertex="1" parent="1">
          <mxGeometry x="525" y="370" width="30" height="30" as="geometry" />
        </mxCell>
        <mxCell id="MB2JMGQzW6ZQnfTpVfwz-16" value="" style="rounded=0;whiteSpace=wrap;html=1;fillColor=#ffff88;strokeColor=#36393d;" vertex="1" parent="1">
          <mxGeometry x="525" y="330" width="30" height="30" as="geometry" />
        </mxCell>
        <mxCell id="MB2JMGQzW6ZQnfTpVfwz-27" style="edgeStyle=none;rounded=0;orthogonalLoop=1;jettySize=auto;html=1;" edge="1" parent="1" source="MB2JMGQzW6ZQnfTpVfwz-17" target="MB2JMGQzW6ZQnfTpVfwz-12">
          <mxGeometry relative="1" as="geometry" />
        </mxCell>
        <mxCell id="MB2JMGQzW6ZQnfTpVfwz-17" value="" style="rounded=0;whiteSpace=wrap;html=1;fillColor=#ffff88;strokeColor=#36393d;" vertex="1" parent="1">
          <mxGeometry x="525" y="290" width="30" height="30" as="geometry" />
        </mxCell>
        <mxCell id="MB2JMGQzW6ZQnfTpVfwz-18" value="" style="rounded=0;whiteSpace=wrap;html=1;fillColor=#bac8d3;strokeColor=#23445d;" vertex="1" parent="1">
          <mxGeometry x="584" y="250" width="50" height="200" as="geometry" />
        </mxCell>
        <mxCell id="MB2JMGQzW6ZQnfTpVfwz-19" value="" style="rounded=0;whiteSpace=wrap;html=1;fillColor=#ffff88;strokeColor=#36393d;" vertex="1" parent="1">
          <mxGeometry x="594" y="410" width="30" height="30" as="geometry" />
        </mxCell>
        <mxCell id="MB2JMGQzW6ZQnfTpVfwz-20" value="" style="rounded=0;whiteSpace=wrap;html=1;fillColor=#bac8d3;strokeColor=#23445d;" vertex="1" parent="1">
          <mxGeometry x="206" y="70" width="340" height="130" as="geometry" />
        </mxCell>
        <mxCell id="MB2JMGQzW6ZQnfTpVfwz-21" value="" style="rounded=0;whiteSpace=wrap;html=1;fillColor=#ffff88;strokeColor=#36393d;" vertex="1" parent="1">
          <mxGeometry x="326" y="100" width="30" height="60" as="geometry" />
        </mxCell>
        <mxCell id="MB2JMGQzW6ZQnfTpVfwz-22" value="" style="rounded=0;whiteSpace=wrap;html=1;fillColor=#ffff88;strokeColor=#36393d;" vertex="1" parent="1">
          <mxGeometry x="376" y="100" width="30" height="60" as="geometry" />
        </mxCell>
        <mxCell id="MB2JMGQzW6ZQnfTpVfwz-23" value="" style="rounded=0;whiteSpace=wrap;html=1;fillColor=#ffff88;strokeColor=#36393d;" vertex="1" parent="1">
          <mxGeometry x="430" y="100" width="30" height="60" as="geometry" />
        </mxCell>
        <mxCell id="MB2JMGQzW6ZQnfTpVfwz-26" style="rounded=0;orthogonalLoop=1;jettySize=auto;html=1;entryX=0.25;entryY=0;entryDx=0;entryDy=0;" edge="1" parent="1" source="MB2JMGQzW6ZQnfTpVfwz-24" target="MB2JMGQzW6ZQnfTpVfwz-18">
          <mxGeometry relative="1" as="geometry" />
        </mxCell>
        <mxCell id="MB2JMGQzW6ZQnfTpVfwz-24" value="" style="rounded=0;whiteSpace=wrap;html=1;fillColor=#ffff88;strokeColor=#36393d;" vertex="1" parent="1">
          <mxGeometry x="486" y="100" width="30" height="60" as="geometry" />
        </mxCell>
      </root>
    </mxGraphModel>
  </diagram>
</mxfile>
